# xmcd
#
# Track frame offsets: 
#        150
#        14373
#        34057
#        50594
#        65511
#        78851
#        87477
#
# Disc length: 1365 seconds
#
# Revision: 0
# Processed by: cddbd v1.5.2PL0 Copyright (c) Steve Scherf et al.
# Submitted via: ExactAudioCopy v0.95b4
#
DISCID=52055307
DTITLE=Empty Orchestra - Get Well Soon
DYEAR=2006
DGENRE=Alternative Country
TTITLE0=Fuck The Party
TTITLE1=Civil War
TTITLE2=A Sense Of Place
TTITLE3=Bible Black
TTITLE4=The Fire
TTITLE5=Down Down
TTITLE6=Get Well Soon
EXTD=
EXTT0=
EXTT1=
EXTT2=
EXTT3=
EXTT4=
EXTT5=
EXTT6=
PLAYORDER=
